HIERARCHY
ROOT joint_Root
{
	OFFSET 0.0 0.0 0.0
	CHANNELS 6 Xposition Yposition Zposition Zrotation Xrotation Yrotation 
	JOINT Hips
	{
		OFFSET -0.726466 93.3139 -2.00062
		CHANNELS 6 Xposition Yposition Zposition Zrotation Xrotation Yrotation 
		JOINT Spine
		{
			OFFSET 15.7357 0.0 0.0
			CHANNELS 6 Xposition Yposition Zposition Zrotation Xrotation Yrotation 
			JOINT Chest
			{
				OFFSET 8.98455 -0.406207 0.0
				CHANNELS 6 Xposition Yposition Zposition Zrotation Xrotation Yrotation 
				JOINT Neck
				{
					OFFSET 16.3773 0.0 0.0
					CHANNELS 6 Xposition Yposition Zposition Zrotation Xrotation Yrotation 
					JOINT Head
					{
						OFFSET 6.45672 0.0 0.0
						CHANNELS 6 Xposition Yposition Zposition Zrotation Xrotation Yrotation 
						End Site
						{
							OFFSET 0.0 0.0 0.0
						}
					}
				}
				JOINT Shoulder_L
				{
					OFFSET 12.9942 -0.242716 4.98039
					CHANNELS 6 Xposition Yposition Zposition Zrotation Xrotation Yrotation 
					JOINT UpperArm_L
					{
						OFFSET 5.34809 0.0 0.0
						CHANNELS 6 Xposition Yposition Zposition Zrotation Xrotation Yrotation 
						JOINT LowerArm_L
						{
							OFFSET 24.3286 1.87007e-05 0.0
							CHANNELS 6 Xposition Yposition Zposition Zrotation Xrotation Yrotation 
							JOINT Hand_L
							{
								OFFSET 22.2916 0.0 0.0
								CHANNELS 6 Xposition Yposition Zposition Zrotation Xrotation Yrotation 
								End Site
								{
									OFFSET 0.0 0.0 0.0
								}
							}
						}
					}
				}
				JOINT Shoulder_R
				{
					OFFSET 12.9945 -0.242716 -4.98039
					CHANNELS 6 Xposition Yposition Zposition Zrotation Xrotation Yrotation 
					JOINT UpperArm_R
					{
						OFFSET -5.34813 0.0 0.0
						CHANNELS 6 Xposition Yposition Zposition Zrotation Xrotation Yrotation 
						JOINT LowerArm_R
						{
							OFFSET -24.3289 0.000322201 0.0
							CHANNELS 6 Xposition Yposition Zposition Zrotation Xrotation Yrotation 
							JOINT Hand_R
							{
								OFFSET -22.2915 -0.000108084 0.0
								CHANNELS 6 Xposition Yposition Zposition Zrotation Xrotation Yrotation 
								End Site
								{
									OFFSET 0.0 0.0 0.0
								}
							}
						}
					}
				}
			}
		}
		JOINT UpperLeg_L
		{
			OFFSET -2.19248 -6.46944 0.0
			CHANNELS 6 Xposition Yposition Zposition Zrotation Xrotation Yrotation 
			JOINT LowerLeg_L
			{
				OFFSET 39.0811 0.0 -1.23785e-05
				CHANNELS 6 Xposition Yposition Zposition Zrotation Xrotation Yrotation 
				JOINT Foot_L
				{
					OFFSET 40.9854 0.0 -1.26872e-05
					CHANNELS 6 Xposition Yposition Zposition Zrotation Xrotation Yrotation 
					JOINT Toes_L
					{
						OFFSET 11.7543 0.0 0.0
						CHANNELS 6 Xposition Yposition Zposition Zrotation Xrotation Yrotation 
						End Site
						{
							OFFSET 0.0 0.0 0.0
						}
					}
				}
			}
		}
		JOINT UpperLeg_R
		{
			OFFSET -2.19251 6.46944 0.0
			CHANNELS 6 Xposition Yposition Zposition Zrotation Xrotation Yrotation 
			JOINT LowerLeg_R
			{
				OFFSET -39.0811 -0.00228153 -0.0401928
				CHANNELS 6 Xposition Yposition Zposition Zrotation Xrotation Yrotation 
				JOINT Foot_R
				{
					OFFSET -40.9854 0.0 0.0
					CHANNELS 6 Xposition Yposition Zposition Zrotation Xrotation Yrotation 
					JOINT Toes_R
					{
						OFFSET -11.7543 0.0 0.0
						CHANNELS 6 Xposition Yposition Zposition Zrotation Xrotation Yrotation 
						End Site
						{
							OFFSET 0.0 0.0 0.0
						}
					}
				}
			}
		}
	}
}
MOTION
Frames:	6
Frame Time:	0.0333333
0.000000 0.000000 0.000000 0.000000 0.000000 -0.000000 -2.392810 92.259500 -1.507400 88.801600 1.471040 5.717340 15.735700 0.000005 -0.000001 78.649300 85.275000 -76.690900 8.984550 -0.406207 -0.000000 1.536690 -1.965310 3.940060 16.377300 -0.000001 -0.000001 4.560080 -1.480830 -2.741790 6.456720 -0.000001 -0.000000 8.442570 -1.640520 -1.561650 12.994200 -0.242716 4.980390 -87.799500 -6.307660 -70.722800 5.348090 -0.000007 -0.000001 -84.147100 -26.900500 -88.289200 24.328600 0.000019 0.000005 4.867850 0.400404 -85.309200 22.291600 -0.000001 0.000005 19.623100 5.576360 -10.018600 12.994500 -0.242716 -4.980390 88.525100 4.784120 -72.844100 -5.348130 -0.000001 -0.000004 -65.554700 39.462900 -14.120100 -24.328900 0.000322 -0.000009 2.196160 8.577220 -14.426700 -22.291500 -0.000108 -0.000004 9.447250 5.395930 -2.805750 -2.192480 -6.469440 -0.000000 -174.574000 -7.814810 -1.905850 39.081100 -0.000007 -0.000012 -0.121498 0.289316 22.780000 40.985400 -0.000006 -0.000013 -0.884655 6.350660 -65.244900 11.754300 -0.000000 0.000003 -0.000043 -0.000499 -16.597000 -2.192510 6.469440 -0.000001 179.823000 15.672600 -179.160000 -39.081100 -0.002282 -0.040193 -0.084384 0.237931 20.234700 -40.985400 0.000008 0.000006 3.216480 7.522450 -65.883900 -11.754300 -0.000006 -0.000006 -0.009009 -0.096076 -20.486500
0.000000 0.000000 0.000000 0.000000 0.000000 -0.000000 -2.410570 92.261500 -1.573660 88.804500 1.412920 5.669330 15.735700 0.000005 -0.000001 78.687100 85.272700 -76.732900 8.984550 -0.406207 -0.000000 1.542290 -1.959790 3.931790 16.377300 -0.000001 -0.000001 4.549100 -1.531670 -2.701720 6.456720 -0.000001 -0.000000 8.382010 -1.726600 -1.526610 12.994200 -0.242716 4.980390 -87.797000 -6.309180 -70.706800 5.348090 -0.000007 -0.000001 -84.332900 -26.934400 -88.410700 24.328600 0.000019 0.000005 4.708510 0.375039 -85.456200 22.291600 -0.000001 0.000005 19.629200 5.576640 -10.033500 12.994500 -0.242716 -4.980390 88.530900 4.762570 -72.834800 -5.348130 -0.000001 -0.000004 -65.239000 39.302700 -14.375000 -24.328900 0.000322 -0.000009 2.158830 8.398810 -14.478100 -22.291500 -0.000108 -0.000004 9.482800 5.397040 -2.841400 -2.192480 -6.469440 -0.000000 -174.572000 -7.872790 -1.995600 39.081100 -0.000007 -0.000012 -0.120970 0.287949 22.787800 40.985400 -0.000006 -0.000013 -0.893320 6.358660 -65.205100 11.754300 -0.000000 0.000003 -0.000039 -0.000452 -16.595100 -2.192510 6.469440 -0.000001 179.864000 15.640600 -179.281000 -39.081100 -0.002282 -0.040193 -0.083164 0.234173 20.270200 -40.985400 0.000008 0.000006 3.247510 7.555310 -65.855600 -11.754300 -0.000006 -0.000006 -0.008779 -0.094279 -20.413000
0.000000 0.000000 0.000000 0.000000 0.000000 -0.000000 -2.432040 92.270200 -1.637920 88.786400 1.321680 5.658810 15.735700 0.000005 -0.000001 78.797800 85.251100 -76.851900 8.984550 -0.406207 -0.000000 1.587840 -1.949010 3.915720 16.377300 -0.000001 -0.000001 4.578790 -1.592990 -2.718920 6.456720 -0.000001 -0.000000 8.341150 -1.820010 -1.387830 12.994200 -0.242716 4.980390 -87.792800 -6.315990 -70.692500 5.348090 -0.000007 -0.000001 -84.522300 -26.970200 -88.596900 24.328600 0.000019 0.000005 4.660530 0.364287 -85.540600 22.291600 -0.000001 0.000005 19.498900 5.577190 -10.062500 12.994500 -0.242716 -4.980390 88.530500 4.770030 -72.855800 -5.348130 -0.000001 -0.000004 -64.877300 39.203500 -14.732800 -24.328900 0.000322 -0.000009 2.176560 8.470970 -14.473800 -22.291500 -0.000108 -0.000004 9.567540 5.395830 -2.802410 -2.192480 -6.469440 -0.000000 -174.552000 -7.877210 -2.032190 39.081100 -0.000007 -0.000012 -0.120116 0.286267 22.762700 40.985400 -0.000006 -0.000013 -0.920577 6.290710 -65.148400 11.754300 -0.000000 0.000003 -0.000041 -0.000477 -16.596100 -2.192510 6.469440 -0.000001 179.915000 15.613600 -179.333000 -39.081100 -0.002282 -0.040193 -0.082238 0.232104 20.235000 -40.985400 0.000008 0.000006 3.275700 7.598410 -65.787500 -11.754300 -0.000006 -0.000006 -0.008783 -0.094311 -20.414300
0.000000 0.000000 0.000000 0.000000 0.000000 -0.000000 -2.433700 92.279300 -1.682700 88.805100 1.244480 5.697740 15.735700 0.000005 -0.000001 78.821600 85.214700 -76.894200 8.984550 -0.406207 -0.000000 1.659820 -1.957010 3.879940 16.377300 -0.000001 -0.000001 4.620260 -1.637460 -2.751420 6.456720 -0.000001 -0.000000 8.419420 -1.890450 -1.328410 12.994200 -0.242716 4.980390 -87.773500 -6.364800 -70.673800 5.348090 -0.000007 -0.000001 -84.649800 -27.053700 -88.582800 24.328600 0.000019 0.000005 4.672690 0.351354 -85.709400 22.291600 -0.000001 0.000005 19.582700 5.576680 -10.035600 12.994500 -0.242716 -4.980390 88.535000 4.760390 -72.872400 -5.348130 -0.000001 -0.000004 -64.554500 39.166500 -15.107200 -24.328900 0.000322 -0.000009 2.174250 8.436300 -14.515500 -22.291500 -0.000108 -0.000004 9.635160 5.395440 -2.789720 -2.192480 -6.469440 -0.000000 -174.562000 -7.943740 -1.974720 39.081100 -0.000007 -0.000012 -0.119448 0.285600 22.696500 40.985400 -0.000006 -0.000013 -0.926413 6.273090 -65.092900 11.754300 -0.000000 0.000003 -0.000037 -0.000435 -16.594500 -2.192510 6.469440 -0.000001 179.893000 15.595400 -179.320000 -39.081100 -0.002282 -0.040193 -0.081669 0.230810 20.215100 -40.985400 0.000008 0.000006 3.289590 7.653730 -65.742800 -11.754300 -0.000006 -0.000006 -0.008966 -0.095744 -20.472900
0.000000 0.000000 0.000000 0.000000 0.000000 -0.000000 -2.441230 92.278600 -1.740440 88.787700 1.138420 5.667470 15.735700 0.000005 -0.000001 78.884600 85.202000 -76.966800 8.984550 -0.406207 -0.000000 1.686390 -1.950590 3.861130 16.377300 -0.000001 -0.000001 4.635340 -1.680700 -2.743010 6.456720 -0.000001 -0.000000 8.575360 -1.972070 -1.388700 12.994200 -0.242716 4.980390 -87.757100 -6.383530 -70.594100 5.348090 -0.000007 -0.000001 -84.611100 -27.124100 -88.190700 24.328600 0.000019 0.000005 4.541980 0.311354 -86.087000 22.291600 -0.000001 0.000005 19.680200 5.576770 -10.039800 12.994500 -0.242716 -4.980390 88.533300 4.770140 -72.886700 -5.348130 -0.000001 -0.000004 -64.315300 39.038100 -15.403200 -24.328900 0.000322 -0.000009 2.194440 8.442920 -14.633800 -22.291500 -0.000108 -0.000004 9.635930 5.395420 -2.789040 -2.192480 -6.469440 -0.000000 -174.547000 -8.010510 -2.054700 39.081100 -0.000007 -0.000012 -0.120101 0.286562 22.739100 40.985400 -0.000006 -0.000013 -0.938381 6.212110 -65.077400 11.754300 -0.000000 0.000003 -0.000038 -0.000449 -16.595100 -2.192510 6.469440 -0.000001 179.945000 15.488900 -179.424000 -39.081100 -0.002282 -0.040193 -0.082777 0.233338 20.253300 -40.985400 0.000008 0.000006 3.298400 7.645320 -65.711900 -11.754300 -0.000006 -0.000006 -0.008869 -0.094986 -20.441900
0.000000 0.000000 0.000000 0.000000 0.000000 -0.000000 -2.442640 92.277300 -1.798970 88.788200 1.015080 5.655780 15.735700 0.000005 -0.000001 79.144300 85.180200 -77.240600 8.984550 -0.406207 -0.000000 1.736710 -1.914550 3.833160 16.377300 -0.000001 -0.000001 4.639500 -1.678950 -2.776700 6.456720 -0.000001 -0.000000 8.703780 -2.014370 -1.398410 12.994200 -0.242716 4.980390 -87.758000 -6.362410 -70.542200 5.348090 -0.000007 -0.000001 -84.157800 -27.323800 -86.955700 24.328600 0.000019 0.000005 4.171560 0.214674 -87.061000 22.291600 -0.000001 0.000005 19.829600 5.575470 -9.971880 12.994500 -0.242716 -4.980390 88.520900 4.802660 -72.859900 -5.348130 -0.000001 -0.000004 -64.090200 38.983600 -15.686500 -24.328900 0.000322 -0.000009 2.188200 8.309200 -14.816900 -22.291500 -0.000108 -0.000004 9.592420 5.393170 -2.716610 -2.192480 -6.469440 -0.000000 -174.551000 -8.042760 -2.103310 39.081100 -0.000007 -0.000012 -0.119983 0.285879 22.767800 40.985400 -0.000006 -0.000013 -0.954926 6.130130 -65.061700 11.754300 -0.000000 0.000003 -0.000042 -0.000484 -16.596400 -2.192510 6.469440 -0.000001 179.982000 15.349100 -179.528000 -39.081100 -0.002282 -0.040193 -0.081979 0.230394 20.316500 -40.985400 0.000008 0.000006 3.310570 7.630140 -65.688700 -11.754300 -0.000006 -0.000006 -0.008611 -0.092950 -20.358700
